<?xml version="1.0" encoding="UTF-8" ?>
<svg version="1.1" width="22" height="22" xmlns="http://www.w3.org/2000/svg" shape-rendering="crispEdges">
<rect x="10" y="1" width="1" height="1" fill="#FFFFFF" opacity="0.019608" />
<rect x="11" y="1" width="1" height="1" fill="#FFFFFF" opacity="0.019608" />
<rect x="9" y="2" width="1" height="1" fill="#FFFFFF" opacity="0.058824" />
<rect x="10" y="2" width="1" height="1" fill="#FFFFFF" opacity="0.749020" />
<rect x="11" y="2" width="1" height="1" fill="#FFFFFF" opacity="0.729412" />
<rect x="12" y="2" width="1" height="1" fill="#FFFFFF" opacity="0.050980" />
<rect x="9" y="3" width="1" height="1" fill="#FFFFFF" opacity="0.329412" />
<rect x="10" y="3" width="1" height="1" fill="#FFFFFF" />
<rect x="11" y="3" width="1" height="1" fill="#FFFFFF" />
<rect x="12" y="3" width="1" height="1" fill="#FFFFFF" opacity="0.325490" />
<rect x="9" y="4" width="1" height="1" fill="#FFFFFF" opacity="0.090196" />
<rect x="10" y="4" width="1" height="1" fill="#FFFFFF" opacity="0.815686" />
<rect x="11" y="4" width="1" height="1" fill="#FFFFFF" opacity="0.815686" />
<rect x="12" y="4" width="1" height="1" fill="#FFFFFF" opacity="0.090196" />
<rect x="10" y="5" width="1" height="1" fill="#FFFFFF" opacity="0.478431" />
<rect x="11" y="5" width="1" height="1" fill="#FFFFFF" opacity="0.478431" />
<rect x="9" y="6" width="1" height="1" fill="#FFFFFF" opacity="0.192157" />
<rect x="10" y="6" width="1" height="1" fill="#FFFFFF" opacity="0.792157" />
<rect x="11" y="6" width="1" height="1" fill="#FFFFFF" opacity="0.807843" />
<rect x="12" y="6" width="1" height="1" fill="#FFFFFF" opacity="0.172549" />
<rect x="7" y="7" width="1" height="1" fill="#FFFFFF" opacity="0.215686" />
<rect x="8" y="7" width="1" height="1" fill="#FFFFFF" opacity="0.623529" />
<rect x="9" y="7" width="1" height="1" fill="#FFFFFF" opacity="0.839216" />
<rect x="10" y="7" width="1" height="1" fill="#FFFFFF" opacity="0.470588" />
<rect x="11" y="7" width="1" height="1" fill="#FFFFFF" opacity="0.462745" />
<rect x="12" y="7" width="1" height="1" fill="#FFFFFF" opacity="0.835294" />
<rect x="13" y="7" width="1" height="1" fill="#FFFFFF" opacity="0.611765" />
<rect x="14" y="7" width="1" height="1" fill="#FFFFFF" opacity="0.219608" />
<rect x="7" y="8" width="1" height="1" fill="#FFFFFF" opacity="0.266667" />
<rect x="8" y="8" width="1" height="1" fill="#FFFFFF" opacity="0.349020" />
<rect x="9" y="8" width="1" height="1" fill="#FFFFFF" opacity="0.050980" />
<rect x="10" y="8" width="1" height="1" fill="#FFFFFF" opacity="0.031373" />
<rect x="11" y="8" width="1" height="1" fill="#FFFFFF" opacity="0.133333" />
<rect x="12" y="8" width="1" height="1" fill="#FFFFFF" opacity="0.054902" />
<rect x="13" y="8" width="1" height="1" fill="#FFFFFF" opacity="0.360784" />
<rect x="14" y="8" width="1" height="1" fill="#FFFFFF" opacity="0.254902" />
<rect x="8" y="9" width="1" height="1" fill="#FFFFFF" opacity="0.050980" />
<rect x="9" y="9" width="1" height="1" fill="#FFFFFF" opacity="0.396078" />
<rect x="10" y="9" width="1" height="1" fill="#FFFFFF" opacity="0.141176" />
<rect x="11" y="9" width="1" height="1" fill="#FFFFFF" opacity="0.941176" />
<rect x="12" y="9" width="1" height="1" fill="#FFFFFF" opacity="0.619608" />
<rect x="13" y="9" width="1" height="1" fill="#FFFFFF" opacity="0.035294" />
<rect x="8" y="10" width="1" height="1" fill="#FFFFFF" opacity="0.141176" />
<rect x="9" y="10" width="1" height="1" fill="#FFFFFF" opacity="0.713725" />
<rect x="10" y="10" width="1" height="1" fill="#FFFFFF" opacity="0.129412" />
<rect x="11" y="10" width="1" height="1" fill="#FFFFFF" opacity="0.960784" />
<rect x="12" y="10" width="1" height="1" fill="#FFFFFF" opacity="0.945098" />
<rect x="13" y="10" width="1" height="1" fill="#FFFFFF" opacity="0.121569" />
<rect x="8" y="11" width="1" height="1" fill="#FFFFFF" opacity="0.129412" />
<rect x="9" y="11" width="1" height="1" fill="#FFFFFF" opacity="0.666667" />
<rect x="10" y="11" width="1" height="1" fill="#FFFFFF" opacity="0.125490" />
<rect x="11" y="11" width="1" height="1" fill="#FFFFFF" opacity="0.941176" />
<rect x="12" y="11" width="1" height="1" fill="#FFFFFF" opacity="0.901961" />
<rect x="13" y="11" width="1" height="1" fill="#FFFFFF" opacity="0.090196" />
<rect x="8" y="12" width="1" height="1" fill="#FFFFFF" opacity="0.129412" />
<rect x="9" y="12" width="1" height="1" fill="#FFFFFF" opacity="0.662745" />
<rect x="10" y="12" width="1" height="1" fill="#FFFFFF" opacity="0.125490" />
<rect x="11" y="12" width="1" height="1" fill="#FFFFFF" opacity="0.937255" />
<rect x="12" y="12" width="1" height="1" fill="#FFFFFF" opacity="0.905882" />
<rect x="13" y="12" width="1" height="1" fill="#FFFFFF" opacity="0.090196" />
<rect x="8" y="13" width="1" height="1" fill="#FFFFFF" opacity="0.125490" />
<rect x="9" y="13" width="1" height="1" fill="#FFFFFF" opacity="0.654902" />
<rect x="10" y="13" width="1" height="1" fill="#FFFFFF" opacity="0.125490" />
<rect x="11" y="13" width="1" height="1" fill="#FFFFFF" opacity="0.941176" />
<rect x="12" y="13" width="1" height="1" fill="#FFFFFF" opacity="0.901961" />
<rect x="13" y="13" width="1" height="1" fill="#FFFFFF" opacity="0.082353" />
<rect x="8" y="14" width="1" height="1" fill="#FFFFFF" opacity="0.121569" />
<rect x="9" y="14" width="1" height="1" fill="#FFFFFF" opacity="0.698039" />
<rect x="10" y="14" width="1" height="1" fill="#FFFFFF" opacity="0.129412" />
<rect x="11" y="14" width="1" height="1" fill="#FFFFFF" opacity="0.945098" />
<rect x="12" y="14" width="1" height="1" fill="#FFFFFF" opacity="0.901961" />
<rect x="13" y="14" width="1" height="1" fill="#FFFFFF" opacity="0.082353" />
<rect x="8" y="15" width="1" height="1" fill="#FFFFFF" opacity="0.090196" />
<rect x="9" y="15" width="1" height="1" fill="#FFFFFF" opacity="0.858824" />
<rect x="10" y="15" width="1" height="1" fill="#FFFFFF" opacity="0.415686" />
<rect x="11" y="15" width="1" height="1" fill="#FFFFFF" opacity="0.909804" />
<rect x="12" y="15" width="1" height="1" fill="#FFFFFF" opacity="0.905882" />
<rect x="13" y="15" width="1" height="1" fill="#FFFFFF" opacity="0.105882" />
<rect x="8" y="16" width="1" height="1" fill="#FFFFFF" opacity="0.050980" />
<rect x="9" y="16" width="1" height="1" fill="#FFFFFF" opacity="0.835294" />
<rect x="10" y="16" width="1" height="1" fill="#FFFFFF" opacity="0.941176" />
<rect x="11" y="16" width="1" height="1" fill="#FFFFFF" opacity="0.964706" />
<rect x="12" y="16" width="1" height="1" fill="#FFFFFF" opacity="0.850980" />
<rect x="13" y="16" width="1" height="1" fill="#FFFFFF" opacity="0.035294" />
<rect x="9" y="17" width="1" height="1" fill="#FFFFFF" opacity="0.545098" />
<rect x="10" y="17" width="1" height="1" fill="#FFFFFF" />
<rect x="11" y="17" width="1" height="1" fill="#FFFFFF" />
<rect x="12" y="17" width="1" height="1" fill="#FFFFFF" opacity="0.529412" />
<rect x="9" y="18" width="1" height="1" fill="#FFFFFF" opacity="0.101961" />
<rect x="10" y="18" width="1" height="1" fill="#FFFFFF" opacity="0.874510" />
<rect x="11" y="18" width="1" height="1" fill="#FFFFFF" opacity="0.870588" />
<rect x="12" y="18" width="1" height="1" fill="#FFFFFF" opacity="0.101961" />
<rect x="10" y="19" width="1" height="1" fill="#FFFFFF" opacity="0.356863" />
<rect x="11" y="19" width="1" height="1" fill="#FFFFFF" opacity="0.345098" />
</svg>