<?xml version="1.0" encoding="UTF-8" ?>
<svg version="1.1" width="22" height="22" xmlns="http://www.w3.org/2000/svg" shape-rendering="crispEdges">
<rect x="7" y="4" width="1" height="1" fill="#FFFFFF" opacity="0.278431" />
<rect x="8" y="4" width="1" height="1" fill="#FFFFFF" opacity="0.400000" />
<rect x="9" y="4" width="1" height="1" fill="#FFFFFF" opacity="0.015686" />
<rect x="13" y="4" width="1" height="1" fill="#FFFFFF" opacity="0.168627" />
<rect x="14" y="4" width="1" height="1" fill="#FFFFFF" opacity="0.462745" />
<rect x="15" y="4" width="1" height="1" fill="#FFFFFF" opacity="0.070588" />
<rect x="6" y="5" width="1" height="1" fill="#FFFFFF" opacity="0.196078" />
<rect x="7" y="5" width="1" height="1" fill="#FFFFFF" opacity="0.737255" />
<rect x="8" y="5" width="1" height="1" fill="#FFFFFF" opacity="0.596078" />
<rect x="9" y="5" width="1" height="1" fill="#FFFFFF" opacity="0.674510" />
<rect x="10" y="5" width="1" height="1" fill="#FFFFFF" opacity="0.407843" />
<rect x="11" y="5" width="1" height="1" fill="#FFFFFF" opacity="0.352941" />
<rect x="12" y="5" width="1" height="1" fill="#FFFFFF" opacity="0.533333" />
<rect x="13" y="5" width="1" height="1" fill="#FFFFFF" opacity="0.709804" />
<rect x="14" y="5" width="1" height="1" fill="#FFFFFF" opacity="0.596078" />
<rect x="15" y="5" width="1" height="1" fill="#FFFFFF" opacity="0.600000" />
<rect x="6" y="6" width="1" height="1" fill="#FFFFFF" opacity="0.345098" />
<rect x="7" y="6" width="1" height="1" fill="#FFFFFF" opacity="0.470588" />
<rect x="8" y="6" width="1" height="1" fill="#FFFFFF" opacity="0.152941" />
<rect x="9" y="6" width="1" height="1" fill="#FFFFFF" opacity="0.305882" />
<rect x="10" y="6" width="1" height="1" fill="#FFFFFF" opacity="0.474510" />
<rect x="11" y="6" width="1" height="1" fill="#FFFFFF" opacity="0.509804" />
<rect x="12" y="6" width="1" height="1" fill="#FFFFFF" opacity="0.415686" />
<rect x="13" y="6" width="1" height="1" fill="#FFFFFF" opacity="0.270588" />
<rect x="14" y="6" width="1" height="1" fill="#FFFFFF" opacity="0.121569" />
<rect x="15" y="6" width="1" height="1" fill="#FFFFFF" opacity="0.662745" />
<rect x="16" y="6" width="1" height="1" fill="#FFFFFF" opacity="0.015686" />
<rect x="6" y="7" width="1" height="1" fill="#FFFFFF" opacity="0.396078" />
<rect x="7" y="7" width="1" height="1" fill="#FFFFFF" opacity="0.435294" />
<rect x="8" y="7" width="1" height="1" fill="#FFFFFF" opacity="0.717647" />
<rect x="9" y="7" width="1" height="1" fill="#FFFFFF" opacity="0.866667" />
<rect x="10" y="7" width="1" height="1" fill="#FFFFFF" opacity="0.564706" />
<rect x="11" y="7" width="1" height="1" fill="#FFFFFF" opacity="0.509804" />
<rect x="12" y="7" width="1" height="1" fill="#FFFFFF" opacity="0.639216" />
<rect x="13" y="7" width="1" height="1" fill="#FFFFFF" opacity="0.976471" />
<rect x="14" y="7" width="1" height="1" fill="#FFFFFF" opacity="0.356863" />
<rect x="15" y="7" width="1" height="1" fill="#FFFFFF" opacity="0.662745" />
<rect x="16" y="7" width="1" height="1" fill="#FFFFFF" opacity="0.031373" />
<rect x="6" y="8" width="1" height="1" fill="#FFFFFF" opacity="0.427451" />
<rect x="7" y="8" width="1" height="1" fill="#FFFFFF" opacity="0.447059" />
<rect x="8" y="8" width="1" height="1" fill="#FFFFFF" opacity="0.752941" />
<rect x="9" y="8" width="1" height="1" fill="#FFFFFF" />
<rect x="10" y="8" width="1" height="1" fill="#FFFFFF" opacity="0.819608" />
<rect x="11" y="8" width="1" height="1" fill="#FFFFFF" opacity="0.521569" />
<rect x="12" y="8" width="1" height="1" fill="#FFFFFF" opacity="0.988235" />
<rect x="13" y="8" width="1" height="1" fill="#FFFFFF" />
<rect x="14" y="8" width="1" height="1" fill="#FFFFFF" opacity="0.384314" />
<rect x="15" y="8" width="1" height="1" fill="#FFFFFF" opacity="0.670588" />
<rect x="16" y="8" width="1" height="1" fill="#FFFFFF" opacity="0.043137" />
<rect x="6" y="9" width="1" height="1" fill="#FFFFFF" opacity="0.462745" />
<rect x="7" y="9" width="1" height="1" fill="#FFFFFF" opacity="0.431373" />
<rect x="8" y="9" width="1" height="1" fill="#FFFFFF" opacity="0.788235" />
<rect x="9" y="9" width="1" height="1" fill="#FFFFFF" />
<rect x="10" y="9" width="1" height="1" fill="#FFFFFF" opacity="0.450980" />
<rect x="11" y="9" width="1" height="1" fill="#FFFFFF" opacity="0.329412" />
<rect x="12" y="9" width="1" height="1" fill="#FFFFFF" />
<rect x="13" y="9" width="1" height="1" fill="#FFFFFF" />
<rect x="14" y="9" width="1" height="1" fill="#FFFFFF" opacity="0.407843" />
<rect x="15" y="9" width="1" height="1" fill="#FFFFFF" opacity="0.678431" />
<rect x="16" y="9" width="1" height="1" fill="#FFFFFF" opacity="0.054902" />
<rect x="6" y="10" width="1" height="1" fill="#FFFFFF" opacity="0.474510" />
<rect x="7" y="10" width="1" height="1" fill="#FFFFFF" opacity="0.431373" />
<rect x="8" y="10" width="1" height="1" fill="#FFFFFF" opacity="0.788235" />
<rect x="9" y="10" width="1" height="1" fill="#FFFFFF" />
<rect x="10" y="10" width="1" height="1" fill="#FFFFFF" opacity="0.250980" />
<rect x="11" y="10" width="1" height="1" fill="#FFFFFF" opacity="0.129412" />
<rect x="12" y="10" width="1" height="1" fill="#FFFFFF" opacity="0.792157" />
<rect x="13" y="10" width="1" height="1" fill="#FFFFFF" />
<rect x="14" y="10" width="1" height="1" fill="#FFFFFF" opacity="0.403922" />
<rect x="15" y="10" width="1" height="1" fill="#FFFFFF" opacity="0.682353" />
<rect x="16" y="10" width="1" height="1" fill="#FFFFFF" opacity="0.058824" />
<rect x="6" y="11" width="1" height="1" fill="#FFFFFF" opacity="0.439216" />
<rect x="7" y="11" width="1" height="1" fill="#FFFFFF" opacity="0.458824" />
<rect x="8" y="11" width="1" height="1" fill="#FFFFFF" opacity="0.784314" />
<rect x="9" y="11" width="1" height="1" fill="#FFFFFF" />
<rect x="10" y="11" width="1" height="1" fill="#FFFFFF" opacity="0.698039" />
<rect x="11" y="11" width="1" height="1" fill="#FFFFFF" opacity="0.262745" />
<rect x="12" y="11" width="1" height="1" fill="#FFFFFF" opacity="0.976471" />
<rect x="13" y="11" width="1" height="1" fill="#FFFFFF" />
<rect x="14" y="11" width="1" height="1" fill="#FFFFFF" opacity="0.415686" />
<rect x="15" y="11" width="1" height="1" fill="#FFFFFF" opacity="0.690196" />
<rect x="16" y="11" width="1" height="1" fill="#FFFFFF" opacity="0.047059" />
<rect x="6" y="12" width="1" height="1" fill="#FFFFFF" opacity="0.368627" />
<rect x="7" y="12" width="1" height="1" fill="#FFFFFF" opacity="0.486275" />
<rect x="8" y="12" width="1" height="1" fill="#FFFFFF" opacity="0.533333" />
<rect x="9" y="12" width="1" height="1" fill="#FFFFFF" />
<rect x="10" y="12" width="1" height="1" fill="#FFFFFF" opacity="0.643137" />
<rect x="11" y="12" width="1" height="1" fill="#FFFFFF" opacity="0.686275" />
<rect x="12" y="12" width="1" height="1" fill="#FFFFFF" />
<rect x="13" y="12" width="1" height="1" fill="#FFFFFF" opacity="0.917647" />
<rect x="14" y="12" width="1" height="1" fill="#FFFFFF" opacity="0.219608" />
<rect x="15" y="12" width="1" height="1" fill="#FFFFFF" opacity="0.698039" />
<rect x="16" y="12" width="1" height="1" fill="#FFFFFF" opacity="0.011765" />
<rect x="6" y="13" width="1" height="1" fill="#FFFFFF" opacity="0.082353" />
<rect x="7" y="13" width="1" height="1" fill="#FFFFFF" opacity="0.772549" />
<rect x="8" y="13" width="1" height="1" fill="#FFFFFF" opacity="0.211765" />
<rect x="9" y="13" width="1" height="1" fill="#FFFFFF" opacity="0.694118" />
<rect x="10" y="13" width="1" height="1" fill="#FFFFFF" opacity="0.847059" />
<rect x="11" y="13" width="1" height="1" fill="#FFFFFF" opacity="0.984314" />
<rect x="12" y="13" width="1" height="1" fill="#FFFFFF" opacity="0.945098" />
<rect x="13" y="13" width="1" height="1" fill="#FFFFFF" opacity="0.305882" />
<rect x="14" y="13" width="1" height="1" fill="#FFFFFF" opacity="0.545098" />
<rect x="15" y="13" width="1" height="1" fill="#FFFFFF" opacity="0.498039" />
<rect x="7" y="14" width="1" height="1" fill="#FFFFFF" opacity="0.305882" />
<rect x="8" y="14" width="1" height="1" fill="#FFFFFF" opacity="0.819608" />
<rect x="9" y="14" width="1" height="1" fill="#FFFFFF" opacity="0.188235" />
<rect x="10" y="14" width="1" height="1" fill="#FFFFFF" opacity="0.564706" />
<rect x="11" y="14" width="1" height="1" fill="#FFFFFF" opacity="0.862745" />
<rect x="12" y="14" width="1" height="1" fill="#FFFFFF" opacity="0.196078" />
<rect x="13" y="14" width="1" height="1" fill="#FFFFFF" opacity="0.509804" />
<rect x="14" y="14" width="1" height="1" fill="#FFFFFF" opacity="0.690196" />
<rect x="15" y="14" width="1" height="1" fill="#FFFFFF" opacity="0.011765" />
<rect x="6" y="15" width="1" height="1" fill="#FFFFFF" opacity="0.003922" />
<rect x="8" y="15" width="1" height="1" fill="#FFFFFF" opacity="0.341176" />
<rect x="9" y="15" width="1" height="1" fill="#FFFFFF" opacity="0.823529" />
<rect x="10" y="15" width="1" height="1" fill="#FFFFFF" opacity="0.227451" />
<rect x="11" y="15" width="1" height="1" fill="#FFFFFF" opacity="0.054902" />
<rect x="12" y="15" width="1" height="1" fill="#FFFFFF" opacity="0.572549" />
<rect x="13" y="15" width="1" height="1" fill="#FFFFFF" opacity="0.709804" />
<rect x="14" y="15" width="1" height="1" fill="#FFFFFF" opacity="0.062745" />
<rect x="9" y="16" width="1" height="1" fill="#FFFFFF" opacity="0.231373" />
<rect x="10" y="16" width="1" height="1" fill="#FFFFFF" opacity="0.803922" />
<rect x="11" y="16" width="1" height="1" fill="#FFFFFF" opacity="0.827451" />
<rect x="12" y="16" width="1" height="1" fill="#FFFFFF" opacity="0.580392" />
<rect x="13" y="16" width="1" height="1" fill="#FFFFFF" opacity="0.019608" />
<rect x="10" y="17" width="1" height="1" fill="#FFFFFF" opacity="0.156863" />
<rect x="11" y="17" width="1" height="1" fill="#FFFFFF" opacity="0.372549" />
<rect x="12" y="17" width="1" height="1" fill="#FFFFFF" opacity="0.003922" />
</svg>