<?xml version="1.0" encoding="UTF-8" ?>
<svg version="1.1" width="22" height="22" xmlns="http://www.w3.org/2000/svg" shape-rendering="crispEdges">
<rect x="10" y="5" width="1" height="1" fill="#FFFFFF" opacity="0.074510" />
<rect x="11" y="5" width="1" height="1" fill="#FFFFFF" opacity="0.227451" />
<rect x="9" y="6" width="1" height="1" fill="#FFFFFF" opacity="0.062745" />
<rect x="10" y="6" width="1" height="1" fill="#FFFFFF" opacity="0.709804" />
<rect x="11" y="6" width="1" height="1" fill="#FFFFFF" opacity="0.972549" />
<rect x="12" y="6" width="1" height="1" fill="#FFFFFF" opacity="0.349020" />
<rect x="8" y="7" width="1" height="1" fill="#FFFFFF" opacity="0.090196" />
<rect x="9" y="7" width="1" height="1" fill="#FFFFFF" opacity="0.756863" />
<rect x="10" y="7" width="1" height="1" fill="#FFFFFF" />
<rect x="11" y="7" width="1" height="1" fill="#FFFFFF" />
<rect x="12" y="7" width="1" height="1" fill="#FFFFFF" opacity="0.980392" />
<rect x="13" y="7" width="1" height="1" fill="#FFFFFF" opacity="0.380392" />
<rect x="7" y="8" width="1" height="1" fill="#FFFFFF" opacity="0.098039" />
<rect x="8" y="8" width="1" height="1" fill="#FFFFFF" opacity="0.788235" />
<rect x="9" y="8" width="1" height="1" fill="#FFFFFF" />
<rect x="10" y="8" width="1" height="1" fill="#FFFFFF" />
<rect x="11" y="8" width="1" height="1" fill="#FFFFFF" />
<rect x="12" y="8" width="1" height="1" fill="#FFFFFF" />
<rect x="13" y="8" width="1" height="1" fill="#FFFFFF" opacity="0.984314" />
<rect x="14" y="8" width="1" height="1" fill="#FFFFFF" opacity="0.411765" />
<rect x="7" y="9" width="1" height="1" fill="#FFFFFF" opacity="0.662745" />
<rect x="8" y="9" width="1" height="1" fill="#FFFFFF" />
<rect x="9" y="9" width="1" height="1" fill="#FFFFFF" />
<rect x="10" y="9" width="1" height="1" fill="#FFFFFF" />
<rect x="11" y="9" width="1" height="1" fill="#FFFFFF" />
<rect x="12" y="9" width="1" height="1" fill="#FFFFFF" />
<rect x="13" y="9" width="1" height="1" fill="#FFFFFF" />
<rect x="14" y="9" width="1" height="1" fill="#FFFFFF" opacity="0.976471" />
<rect x="15" y="9" width="1" height="1" fill="#FFFFFF" opacity="0.223529" />
<rect x="7" y="10" width="1" height="1" fill="#FFFFFF" opacity="0.172549" />
<rect x="8" y="10" width="1" height="1" fill="#FFFFFF" opacity="0.854902" />
<rect x="9" y="10" width="1" height="1" fill="#FFFFFF" />
<rect x="10" y="10" width="1" height="1" fill="#FFFFFF" />
<rect x="11" y="10" width="1" height="1" fill="#FFFFFF" />
<rect x="12" y="10" width="1" height="1" fill="#FFFFFF" />
<rect x="13" y="10" width="1" height="1" fill="#FFFFFF" />
<rect x="14" y="10" width="1" height="1" fill="#FFFFFF" opacity="0.517647" />
<rect x="15" y="10" width="1" height="1" fill="#FFFFFF" opacity="0.015686" />
<rect x="7" y="11" width="1" height="1" fill="#FFFFFF" opacity="0.105882" />
<rect x="8" y="11" width="1" height="1" fill="#FFFFFF" opacity="0.552941" />
<rect x="9" y="11" width="1" height="1" fill="#FFFFFF" opacity="0.870588" />
<rect x="10" y="11" width="1" height="1" fill="#FFFFFF" />
<rect x="11" y="11" width="1" height="1" fill="#FFFFFF" />
<rect x="12" y="11" width="1" height="1" fill="#FFFFFF" opacity="0.988235" />
<rect x="13" y="11" width="1" height="1" fill="#FFFFFF" opacity="0.725490" />
<rect x="14" y="11" width="1" height="1" fill="#FFFFFF" opacity="0.309804" />
<rect x="15" y="11" width="1" height="1" fill="#FFFFFF" opacity="0.003922" />
<rect x="7" y="12" width="1" height="1" fill="#FFFFFF" opacity="0.443137" />
<rect x="8" y="12" width="1" height="1" fill="#FFFFFF" opacity="0.478431" />
<rect x="9" y="12" width="1" height="1" fill="#FFFFFF" opacity="0.105882" />
<rect x="10" y="12" width="1" height="1" fill="#FFFFFF" opacity="0.792157" />
<rect x="11" y="12" width="1" height="1" fill="#FFFFFF" />
<rect x="12" y="12" width="1" height="1" fill="#FFFFFF" opacity="0.411765" />
<rect x="13" y="12" width="1" height="1" fill="#FFFFFF" opacity="0.180392" />
<rect x="14" y="12" width="1" height="1" fill="#FFFFFF" opacity="0.631373" />
<rect x="15" y="12" width="1" height="1" fill="#FFFFFF" opacity="0.141176" />
<rect x="7" y="13" width="1" height="1" fill="#FFFFFF" opacity="0.066667" />
<rect x="8" y="13" width="1" height="1" fill="#FFFFFF" opacity="0.509804" />
<rect x="9" y="13" width="1" height="1" fill="#FFFFFF" opacity="0.360784" />
<rect x="10" y="13" width="1" height="1" fill="#FFFFFF" opacity="0.109804" />
<rect x="11" y="13" width="1" height="1" fill="#FFFFFF" opacity="0.298039" />
<rect x="12" y="13" width="1" height="1" fill="#FFFFFF" opacity="0.109804" />
<rect x="13" y="13" width="1" height="1" fill="#FFFFFF" opacity="0.584314" />
<rect x="14" y="13" width="1" height="1" fill="#FFFFFF" opacity="0.266667" />
<rect x="8" y="14" width="1" height="1" fill="#FFFFFF" opacity="0.058824" />
<rect x="9" y="14" width="1" height="1" fill="#FFFFFF" opacity="0.513725" />
<rect x="10" y="14" width="1" height="1" fill="#FFFFFF" opacity="0.376471" />
<rect x="11" y="14" width="1" height="1" fill="#FFFFFF" opacity="0.121569" />
<rect x="12" y="14" width="1" height="1" fill="#FFFFFF" opacity="0.580392" />
<rect x="13" y="14" width="1" height="1" fill="#FFFFFF" opacity="0.254902" />
<rect x="9" y="15" width="1" height="1" fill="#FFFFFF" opacity="0.043137" />
<rect x="10" y="15" width="1" height="1" fill="#FFFFFF" opacity="0.474510" />
<rect x="11" y="15" width="1" height="1" fill="#FFFFFF" opacity="0.596078" />
<rect x="12" y="15" width="1" height="1" fill="#FFFFFF" opacity="0.239216" />
<rect x="10" y="16" width="1" height="1" fill="#FFFFFF" opacity="0.054902" />
<rect x="11" y="16" width="1" height="1" fill="#FFFFFF" opacity="0.152941" />
</svg>