<?xml version="1.0" encoding="UTF-8" ?>
<svg version="1.1" width="22" height="22" xmlns="http://www.w3.org/2000/svg" shape-rendering="crispEdges">
<rect x="10" y="3" width="1" height="1" fill="#FFFFFF" opacity="0.215686" />
<rect x="11" y="3" width="1" height="1" fill="#FFFFFF" opacity="0.423529" />
<rect x="12" y="3" width="1" height="1" fill="#FFFFFF" opacity="0.031373" />
<rect x="10" y="4" width="1" height="1" fill="#FFFFFF" opacity="0.666667" />
<rect x="11" y="4" width="1" height="1" fill="#FFFFFF" />
<rect x="12" y="4" width="1" height="1" fill="#FFFFFF" opacity="0.231373" />
<rect x="10" y="5" width="1" height="1" fill="#FFFFFF" opacity="0.345098" />
<rect x="11" y="5" width="1" height="1" fill="#FFFFFF" opacity="0.760784" />
<rect x="12" y="5" width="1" height="1" fill="#FFFFFF" opacity="0.027451" />
<rect x="10" y="6" width="1" height="1" fill="#FFFFFF" opacity="0.207843" />
<rect x="11" y="6" width="1" height="1" fill="#FFFFFF" opacity="0.643137" />
<rect x="9" y="7" width="1" height="1" fill="#FFFFFF" opacity="0.117647" />
<rect x="10" y="7" width="1" height="1" fill="#FFFFFF" opacity="0.662745" />
<rect x="11" y="7" width="1" height="1" fill="#FFFFFF" opacity="0.831373" />
<rect x="12" y="7" width="1" height="1" fill="#FFFFFF" opacity="0.380392" />
<rect x="13" y="7" width="1" height="1" fill="#FFFFFF" opacity="0.003922" />
<rect x="8" y="8" width="1" height="1" fill="#FFFFFF" opacity="0.203922" />
<rect x="9" y="8" width="1" height="1" fill="#FFFFFF" opacity="0.600000" />
<rect x="10" y="8" width="1" height="1" fill="#FFFFFF" opacity="0.352941" />
<rect x="11" y="8" width="1" height="1" fill="#FFFFFF" opacity="0.254902" />
<rect x="12" y="8" width="1" height="1" fill="#FFFFFF" opacity="0.521569" />
<rect x="13" y="8" width="1" height="1" fill="#FFFFFF" opacity="0.450980" />
<rect x="14" y="8" width="1" height="1" fill="#FFFFFF" opacity="0.031373" />
<rect x="8" y="9" width="1" height="1" fill="#FFFFFF" opacity="0.039216" />
<rect x="9" y="9" width="1" height="1" fill="#FFFFFF" opacity="0.031373" />
<rect x="10" y="9" width="1" height="1" fill="#FFFFFF" opacity="0.666667" />
<rect x="11" y="9" width="1" height="1" fill="#FFFFFF" opacity="0.964706" />
<rect x="12" y="9" width="1" height="1" fill="#FFFFFF" opacity="0.247059" />
<rect x="13" y="9" width="1" height="1" fill="#FFFFFF" opacity="0.031373" />
<rect x="14" y="9" width="1" height="1" fill="#FFFFFF" opacity="0.011765" />
<rect x="9" y="10" width="1" height="1" fill="#FFFFFF" opacity="0.015686" />
<rect x="10" y="10" width="1" height="1" fill="#FFFFFF" opacity="0.792157" />
<rect x="11" y="10" width="1" height="1" fill="#FFFFFF" />
<rect x="12" y="10" width="1" height="1" fill="#FFFFFF" opacity="0.349020" />
<rect x="5" y="11" width="1" height="1" fill="#FFFFFF" opacity="0.109804" />
<rect x="6" y="11" width="1" height="1" fill="#FFFFFF" opacity="0.184314" />
<rect x="9" y="11" width="1" height="1" fill="#FFFFFF" opacity="0.011765" />
<rect x="10" y="11" width="1" height="1" fill="#FFFFFF" opacity="0.764706" />
<rect x="11" y="11" width="1" height="1" fill="#FFFFFF" />
<rect x="12" y="11" width="1" height="1" fill="#FFFFFF" opacity="0.329412" />
<rect x="15" y="11" width="1" height="1" fill="#FFFFFF" opacity="0.192157" />
<rect x="16" y="11" width="1" height="1" fill="#FFFFFF" opacity="0.105882" />
<rect x="5" y="12" width="1" height="1" fill="#FFFFFF" opacity="0.007843" />
<rect x="6" y="12" width="1" height="1" fill="#FFFFFF" opacity="0.607843" />
<rect x="7" y="12" width="1" height="1" fill="#FFFFFF" opacity="0.541176" />
<rect x="8" y="12" width="1" height="1" fill="#FFFFFF" opacity="0.223529" />
<rect x="9" y="12" width="1" height="1" fill="#FFFFFF" opacity="0.031373" />
<rect x="10" y="12" width="1" height="1" fill="#FFFFFF" opacity="0.760784" />
<rect x="11" y="12" width="1" height="1" fill="#FFFFFF" />
<rect x="12" y="12" width="1" height="1" fill="#FFFFFF" opacity="0.337255" />
<rect x="13" y="12" width="1" height="1" fill="#FFFFFF" opacity="0.207843" />
<rect x="14" y="12" width="1" height="1" fill="#FFFFFF" opacity="0.537255" />
<rect x="15" y="12" width="1" height="1" fill="#FFFFFF" opacity="0.611765" />
<rect x="16" y="12" width="1" height="1" fill="#FFFFFF" opacity="0.011765" />
<rect x="6" y="13" width="1" height="1" fill="#FFFFFF" opacity="0.109804" />
<rect x="7" y="13" width="1" height="1" fill="#FFFFFF" opacity="0.890196" />
<rect x="8" y="13" width="1" height="1" fill="#FFFFFF" opacity="0.878431" />
<rect x="9" y="13" width="1" height="1" fill="#FFFFFF" opacity="0.043137" />
<rect x="10" y="13" width="1" height="1" fill="#FFFFFF" opacity="0.745098" />
<rect x="11" y="13" width="1" height="1" fill="#FFFFFF" />
<rect x="12" y="13" width="1" height="1" fill="#FFFFFF" opacity="0.356863" />
<rect x="13" y="13" width="1" height="1" fill="#FFFFFF" opacity="0.854902" />
<rect x="14" y="13" width="1" height="1" fill="#FFFFFF" opacity="0.886275" />
<rect x="15" y="13" width="1" height="1" fill="#FFFFFF" opacity="0.109804" />
<rect x="7" y="14" width="1" height="1" fill="#FFFFFF" opacity="0.298039" />
<rect x="8" y="14" width="1" height="1" fill="#FFFFFF" opacity="0.956863" />
<rect x="9" y="14" width="1" height="1" fill="#FFFFFF" opacity="0.098039" />
<rect x="10" y="14" width="1" height="1" fill="#FFFFFF" opacity="0.737255" />
<rect x="11" y="14" width="1" height="1" fill="#FFFFFF" />
<rect x="12" y="14" width="1" height="1" fill="#FFFFFF" opacity="0.411765" />
<rect x="13" y="14" width="1" height="1" fill="#FFFFFF" opacity="0.929412" />
<rect x="14" y="14" width="1" height="1" fill="#FFFFFF" opacity="0.298039" />
<rect x="8" y="15" width="1" height="1" fill="#FFFFFF" opacity="0.572549" />
<rect x="9" y="15" width="1" height="1" fill="#FFFFFF" opacity="0.250980" />
<rect x="10" y="15" width="1" height="1" fill="#FFFFFF" opacity="0.705882" />
<rect x="11" y="15" width="1" height="1" fill="#FFFFFF" />
<rect x="12" y="15" width="1" height="1" fill="#FFFFFF" opacity="0.529412" />
<rect x="13" y="15" width="1" height="1" fill="#FFFFFF" opacity="0.549020" />
<rect x="8" y="16" width="1" height="1" fill="#FFFFFF" opacity="0.082353" />
<rect x="9" y="16" width="1" height="1" fill="#FFFFFF" opacity="0.129412" />
<rect x="10" y="16" width="1" height="1" fill="#FFFFFF" opacity="0.592157" />
<rect x="11" y="16" width="1" height="1" fill="#FFFFFF" opacity="0.996078" />
<rect x="12" y="16" width="1" height="1" fill="#FFFFFF" opacity="0.298039" />
<rect x="13" y="16" width="1" height="1" fill="#FFFFFF" opacity="0.066667" />
<rect x="10" y="17" width="1" height="1" fill="#FFFFFF" opacity="0.325490" />
<rect x="11" y="17" width="1" height="1" fill="#FFFFFF" opacity="0.764706" />
<rect x="12" y="17" width="1" height="1" fill="#FFFFFF" opacity="0.011765" />
<rect x="10" y="18" width="1" height="1" fill="#FFFFFF" opacity="0.035294" />
<rect x="11" y="18" width="1" height="1" fill="#FFFFFF" opacity="0.145098" />
</svg>