<?xml version="1.0" encoding="UTF-8" ?>
<svg version="1.1" width="22" height="22" xmlns="http://www.w3.org/2000/svg" shape-rendering="crispEdges">
<rect x="10" y="3" width="1" height="1" fill="#FFFFFF" opacity="0.007843" />
<rect x="11" y="3" width="1" height="1" fill="#FFFFFF" opacity="0.133333" />
<rect x="12" y="3" width="1" height="1" fill="#FFFFFF" opacity="0.007843" />
<rect x="10" y="4" width="1" height="1" fill="#FFFFFF" opacity="0.215686" />
<rect x="11" y="4" width="1" height="1" fill="#FFFFFF" opacity="0.866667" />
<rect x="12" y="4" width="1" height="1" fill="#FFFFFF" opacity="0.215686" />
<rect x="9" y="5" width="1" height="1" fill="#FFFFFF" opacity="0.121569" />
<rect x="10" y="5" width="1" height="1" fill="#FFFFFF" opacity="0.811765" />
<rect x="11" y="5" width="1" height="1" fill="#FFFFFF" opacity="0.705882" />
<rect x="12" y="5" width="1" height="1" fill="#FFFFFF" opacity="0.819608" />
<rect x="13" y="5" width="1" height="1" fill="#FFFFFF" opacity="0.113725" />
<rect x="9" y="6" width="1" height="1" fill="#FFFFFF" opacity="0.737255" />
<rect x="10" y="6" width="1" height="1" fill="#FFFFFF" opacity="0.690196" />
<rect x="11" y="6" width="1" height="1" fill="#FFFFFF" opacity="0.235294" />
<rect x="12" y="6" width="1" height="1" fill="#FFFFFF" opacity="0.678431" />
<rect x="13" y="6" width="1" height="1" fill="#FFFFFF" opacity="0.737255" />
<rect x="9" y="7" width="1" height="1" fill="#FFFFFF" opacity="0.270588" />
<rect x="10" y="7" width="1" height="1" fill="#FFFFFF" opacity="0.831373" />
<rect x="11" y="7" width="1" height="1" fill="#FFFFFF" opacity="0.811765" />
<rect x="12" y="7" width="1" height="1" fill="#FFFFFF" opacity="0.815686" />
<rect x="13" y="7" width="1" height="1" fill="#FFFFFF" opacity="0.266667" />
<rect x="10" y="8" width="1" height="1" fill="#FFFFFF" opacity="0.458824" />
<rect x="11" y="8" width="1" height="1" fill="#FFFFFF" />
<rect x="12" y="8" width="1" height="1" fill="#FFFFFF" opacity="0.462745" />
<rect x="10" y="9" width="1" height="1" fill="#FFFFFF" opacity="0.650980" />
<rect x="11" y="9" width="1" height="1" fill="#FFFFFF" />
<rect x="12" y="9" width="1" height="1" fill="#FFFFFF" opacity="0.662745" />
<rect x="9" y="10" width="1" height="1" fill="#FFFFFF" opacity="0.152941" />
<rect x="10" y="10" width="1" height="1" fill="#FFFFFF" opacity="0.972549" />
<rect x="11" y="10" width="1" height="1" fill="#FFFFFF" />
<rect x="12" y="10" width="1" height="1" fill="#FFFFFF" opacity="0.972549" />
<rect x="13" y="10" width="1" height="1" fill="#FFFFFF" opacity="0.152941" />
<rect x="9" y="11" width="1" height="1" fill="#FFFFFF" opacity="0.525490" />
<rect x="10" y="11" width="1" height="1" fill="#FFFFFF" />
<rect x="11" y="11" width="1" height="1" fill="#FFFFFF" />
<rect x="12" y="11" width="1" height="1" fill="#FFFFFF" />
<rect x="13" y="11" width="1" height="1" fill="#FFFFFF" opacity="0.537255" />
<rect x="4" y="12" width="1" height="1" fill="#FFFFFF" opacity="0.058824" />
<rect x="5" y="12" width="1" height="1" fill="#FFFFFF" opacity="0.054902" />
<rect x="6" y="12" width="1" height="1" fill="#FFFFFF" opacity="0.050980" />
<rect x="7" y="12" width="1" height="1" fill="#FFFFFF" opacity="0.039216" />
<rect x="8" y="12" width="1" height="1" fill="#FFFFFF" opacity="0.023529" />
<rect x="9" y="12" width="1" height="1" fill="#FFFFFF" opacity="0.823529" />
<rect x="10" y="12" width="1" height="1" fill="#FFFFFF" />
<rect x="11" y="12" width="1" height="1" fill="#FFFFFF" />
<rect x="12" y="12" width="1" height="1" fill="#FFFFFF" />
<rect x="13" y="12" width="1" height="1" fill="#FFFFFF" opacity="0.843137" />
<rect x="14" y="12" width="1" height="1" fill="#FFFFFF" opacity="0.047059" />
<rect x="15" y="12" width="1" height="1" fill="#FFFFFF" opacity="0.047059" />
<rect x="16" y="12" width="1" height="1" fill="#FFFFFF" opacity="0.050980" />
<rect x="17" y="12" width="1" height="1" fill="#FFFFFF" opacity="0.066667" />
<rect x="18" y="12" width="1" height="1" fill="#FFFFFF" opacity="0.023529" />
<rect x="4" y="13" width="1" height="1" fill="#FFFFFF" opacity="0.415686" />
<rect x="5" y="13" width="1" height="1" fill="#FFFFFF" opacity="0.956863" />
<rect x="6" y="13" width="1" height="1" fill="#FFFFFF" opacity="0.964706" />
<rect x="7" y="13" width="1" height="1" fill="#FFFFFF" opacity="0.878431" />
<rect x="8" y="13" width="1" height="1" fill="#FFFFFF" opacity="0.050980" />
<rect x="9" y="13" width="1" height="1" fill="#FFFFFF" opacity="0.588235" />
<rect x="10" y="13" width="1" height="1" fill="#FFFFFF" />
<rect x="11" y="13" width="1" height="1" fill="#FFFFFF" />
<rect x="12" y="13" width="1" height="1" fill="#FFFFFF" />
<rect x="13" y="13" width="1" height="1" fill="#FFFFFF" opacity="0.568627" />
<rect x="14" y="13" width="1" height="1" fill="#FFFFFF" opacity="0.458824" />
<rect x="15" y="13" width="1" height="1" fill="#FFFFFF" opacity="0.980392" />
<rect x="16" y="13" width="1" height="1" fill="#FFFFFF" opacity="0.984314" />
<rect x="17" y="13" width="1" height="1" fill="#FFFFFF" opacity="0.768627" />
<rect x="18" y="13" width="1" height="1" fill="#FFFFFF" opacity="0.101961" />
<rect x="5" y="14" width="1" height="1" fill="#FFFFFF" opacity="0.411765" />
<rect x="6" y="14" width="1" height="1" fill="#FFFFFF" opacity="0.988235" />
<rect x="7" y="14" width="1" height="1" fill="#FFFFFF" />
<rect x="8" y="14" width="1" height="1" fill="#FFFFFF" opacity="0.384314" />
<rect x="9" y="14" width="1" height="1" fill="#FFFFFF" opacity="0.121569" />
<rect x="10" y="14" width="1" height="1" fill="#FFFFFF" opacity="0.972549" />
<rect x="11" y="14" width="1" height="1" fill="#FFFFFF" />
<rect x="12" y="14" width="1" height="1" fill="#FFFFFF" opacity="0.968627" />
<rect x="13" y="14" width="1" height="1" fill="#FFFFFF" opacity="0.196078" />
<rect x="14" y="14" width="1" height="1" fill="#FFFFFF" opacity="0.858824" />
<rect x="15" y="14" width="1" height="1" fill="#FFFFFF" />
<rect x="16" y="14" width="1" height="1" fill="#FFFFFF" opacity="0.756863" />
<rect x="17" y="14" width="1" height="1" fill="#FFFFFF" opacity="0.101961" />
<rect x="6" y="15" width="1" height="1" fill="#FFFFFF" opacity="0.313725" />
<rect x="7" y="15" width="1" height="1" fill="#FFFFFF" opacity="0.968627" />
<rect x="8" y="15" width="1" height="1" fill="#FFFFFF" opacity="0.788235" />
<rect x="9" y="15" width="1" height="1" fill="#FFFFFF" opacity="0.003922" />
<rect x="10" y="15" width="1" height="1" fill="#FFFFFF" opacity="0.666667" />
<rect x="11" y="15" width="1" height="1" fill="#FFFFFF" />
<rect x="12" y="15" width="1" height="1" fill="#FFFFFF" opacity="0.607843" />
<rect x="13" y="15" width="1" height="1" fill="#FFFFFF" opacity="0.317647" />
<rect x="14" y="15" width="1" height="1" fill="#FFFFFF" />
<rect x="15" y="15" width="1" height="1" fill="#FFFFFF" opacity="0.682353" />
<rect x="16" y="15" width="1" height="1" fill="#FFFFFF" opacity="0.050980" />
<rect x="7" y="16" width="1" height="1" fill="#FFFFFF" opacity="0.274510" />
<rect x="8" y="16" width="1" height="1" fill="#FFFFFF" opacity="0.894118" />
<rect x="9" y="16" width="1" height="1" fill="#FFFFFF" opacity="0.219608" />
<rect x="10" y="16" width="1" height="1" fill="#FFFFFF" opacity="0.200000" />
<rect x="11" y="16" width="1" height="1" fill="#FFFFFF" opacity="0.968627" />
<rect x="12" y="16" width="1" height="1" fill="#FFFFFF" opacity="0.211765" />
<rect x="13" y="16" width="1" height="1" fill="#FFFFFF" opacity="0.666667" />
<rect x="14" y="16" width="1" height="1" fill="#FFFFFF" opacity="0.650980" />
<rect x="15" y="16" width="1" height="1" fill="#FFFFFF" opacity="0.019608" />
<rect x="8" y="17" width="1" height="1" fill="#FFFFFF" opacity="0.247059" />
<rect x="9" y="17" width="1" height="1" fill="#FFFFFF" opacity="0.470588" />
<rect x="10" y="17" width="1" height="1" fill="#FFFFFF" opacity="0.019608" />
<rect x="11" y="17" width="1" height="1" fill="#FFFFFF" opacity="0.545098" />
<rect x="12" y="17" width="1" height="1" fill="#FFFFFF" opacity="0.196078" />
<rect x="13" y="17" width="1" height="1" fill="#FFFFFF" opacity="0.533333" />
<rect x="14" y="17" width="1" height="1" fill="#FFFFFF" opacity="0.015686" />
<rect x="9" y="18" width="1" height="1" fill="#FFFFFF" opacity="0.098039" />
<rect x="10" y="18" width="1" height="1" fill="#FFFFFF" opacity="0.027451" />
<rect x="11" y="18" width="1" height="1" fill="#FFFFFF" opacity="0.082353" />
<rect x="12" y="18" width="1" height="1" fill="#FFFFFF" opacity="0.090196" />
<rect x="13" y="18" width="1" height="1" fill="#FFFFFF" opacity="0.023529" />
</svg>