<?xml version="1.0" encoding="UTF-8" ?>
<svg version="1.1" width="22" height="22" xmlns="http://www.w3.org/2000/svg" shape-rendering="crispEdges">
<rect x="6" y="4" width="1" height="1" fill="#FFFFFF" opacity="0.003922" />
<rect x="7" y="5" width="1" height="1" fill="#FFFFFF" opacity="0.270588" />
<rect x="8" y="5" width="1" height="1" fill="#FFFFFF" opacity="0.411765" />
<rect x="13" y="5" width="1" height="1" fill="#FFFFFF" opacity="0.172549" />
<rect x="14" y="5" width="1" height="1" fill="#FFFFFF" opacity="0.517647" />
<rect x="15" y="5" width="1" height="1" fill="#FFFFFF" opacity="0.011765" />
<rect x="7" y="6" width="1" height="1" fill="#FFFFFF" opacity="0.529412" />
<rect x="8" y="6" width="1" height="1" fill="#FFFFFF" />
<rect x="9" y="6" width="1" height="1" fill="#FFFFFF" opacity="0.698039" />
<rect x="10" y="6" width="1" height="1" fill="#FFFFFF" opacity="0.443137" />
<rect x="11" y="6" width="1" height="1" fill="#FFFFFF" opacity="0.403922" />
<rect x="12" y="6" width="1" height="1" fill="#FFFFFF" opacity="0.541176" />
<rect x="13" y="6" width="1" height="1" fill="#FFFFFF" opacity="0.854902" />
<rect x="14" y="6" width="1" height="1" fill="#FFFFFF" opacity="0.909804" />
<rect x="15" y="6" width="1" height="1" fill="#FFFFFF" opacity="0.047059" />
<rect x="7" y="7" width="1" height="1" fill="#FFFFFF" opacity="0.690196" />
<rect x="8" y="7" width="1" height="1" fill="#FFFFFF" opacity="0.403922" />
<rect x="9" y="7" width="1" height="1" fill="#FFFFFF" opacity="0.415686" />
<rect x="10" y="7" width="1" height="1" fill="#FFFFFF" opacity="0.623529" />
<rect x="11" y="7" width="1" height="1" fill="#FFFFFF" opacity="0.654902" />
<rect x="12" y="7" width="1" height="1" fill="#FFFFFF" opacity="0.529412" />
<rect x="13" y="7" width="1" height="1" fill="#FFFFFF" opacity="0.196078" />
<rect x="14" y="7" width="1" height="1" fill="#FFFFFF" opacity="0.760784" />
<rect x="15" y="7" width="1" height="1" fill="#FFFFFF" opacity="0.227451" />
<rect x="6" y="8" width="1" height="1" fill="#FFFFFF" opacity="0.039216" />
<rect x="7" y="8" width="1" height="1" fill="#FFFFFF" opacity="0.827451" />
<rect x="8" y="8" width="1" height="1" fill="#FFFFFF" opacity="0.145098" />
<rect x="9" y="8" width="1" height="1" fill="#FFFFFF" opacity="0.121569" />
<rect x="10" y="8" width="1" height="1" fill="#FFFFFF" opacity="0.027451" />
<rect x="12" y="8" width="1" height="1" fill="#FFFFFF" opacity="0.125490" />
<rect x="13" y="8" width="1" height="1" fill="#FFFFFF" opacity="0.019608" />
<rect x="14" y="8" width="1" height="1" fill="#FFFFFF" opacity="0.619608" />
<rect x="15" y="8" width="1" height="1" fill="#FFFFFF" opacity="0.443137" />
<rect x="6" y="9" width="1" height="1" fill="#FFFFFF" opacity="0.058824" />
<rect x="7" y="9" width="1" height="1" fill="#FFFFFF" opacity="0.894118" />
<rect x="8" y="9" width="1" height="1" fill="#FFFFFF" opacity="0.066667" />
<rect x="9" y="9" width="1" height="1" fill="#FFFFFF" opacity="0.752941" />
<rect x="10" y="9" width="1" height="1" fill="#FFFFFF" opacity="0.815686" />
<rect x="11" y="9" width="1" height="1" fill="#FFFFFF" opacity="0.686275" />
<rect x="12" y="9" width="1" height="1" fill="#FFFFFF" opacity="0.937255" />
<rect x="13" y="9" width="1" height="1" fill="#FFFFFF" opacity="0.262745" />
<rect x="14" y="9" width="1" height="1" fill="#FFFFFF" opacity="0.521569" />
<rect x="15" y="9" width="1" height="1" fill="#FFFFFF" opacity="0.549020" />
<rect x="6" y="10" width="1" height="1" fill="#FFFFFF" opacity="0.058824" />
<rect x="7" y="10" width="1" height="1" fill="#FFFFFF" opacity="0.894118" />
<rect x="8" y="10" width="1" height="1" fill="#FFFFFF" opacity="0.101961" />
<rect x="9" y="10" width="1" height="1" fill="#FFFFFF" opacity="0.917647" />
<rect x="10" y="10" width="1" height="1" fill="#FFFFFF" />
<rect x="11" y="10" width="1" height="1" fill="#FFFFFF" />
<rect x="12" y="10" width="1" height="1" fill="#FFFFFF" />
<rect x="13" y="10" width="1" height="1" fill="#FFFFFF" opacity="0.423529" />
<rect x="14" y="10" width="1" height="1" fill="#FFFFFF" opacity="0.501961" />
<rect x="15" y="10" width="1" height="1" fill="#FFFFFF" opacity="0.549020" />
<rect x="6" y="11" width="1" height="1" fill="#FFFFFF" opacity="0.050980" />
<rect x="7" y="11" width="1" height="1" fill="#FFFFFF" opacity="0.866667" />
<rect x="8" y="11" width="1" height="1" fill="#FFFFFF" opacity="0.137255" />
<rect x="9" y="11" width="1" height="1" fill="#FFFFFF" opacity="0.917647" />
<rect x="10" y="11" width="1" height="1" fill="#FFFFFF" />
<rect x="11" y="11" width="1" height="1" fill="#FFFFFF" />
<rect x="12" y="11" width="1" height="1" fill="#FFFFFF" />
<rect x="13" y="11" width="1" height="1" fill="#FFFFFF" opacity="0.458824" />
<rect x="14" y="11" width="1" height="1" fill="#FFFFFF" opacity="0.525490" />
<rect x="15" y="11" width="1" height="1" fill="#FFFFFF" opacity="0.517647" />
<rect x="6" y="12" width="1" height="1" fill="#FFFFFF" opacity="0.019608" />
<rect x="7" y="12" width="1" height="1" fill="#FFFFFF" opacity="0.776471" />
<rect x="8" y="12" width="1" height="1" fill="#FFFFFF" opacity="0.262745" />
<rect x="9" y="12" width="1" height="1" fill="#FFFFFF" opacity="0.698039" />
<rect x="10" y="12" width="1" height="1" fill="#FFFFFF" />
<rect x="11" y="12" width="1" height="1" fill="#FFFFFF" />
<rect x="12" y="12" width="1" height="1" fill="#FFFFFF" opacity="0.996078" />
<rect x="13" y="12" width="1" height="1" fill="#FFFFFF" opacity="0.274510" />
<rect x="14" y="12" width="1" height="1" fill="#FFFFFF" opacity="0.674510" />
<rect x="15" y="12" width="1" height="1" fill="#FFFFFF" opacity="0.333333" />
<rect x="7" y="13" width="1" height="1" fill="#FFFFFF" opacity="0.600000" />
<rect x="8" y="13" width="1" height="1" fill="#FFFFFF" opacity="0.498039" />
<rect x="9" y="13" width="1" height="1" fill="#FFFFFF" opacity="0.235294" />
<rect x="10" y="13" width="1" height="1" fill="#FFFFFF" opacity="0.949020" />
<rect x="11" y="13" width="1" height="1" fill="#FFFFFF" />
<rect x="12" y="13" width="1" height="1" fill="#FFFFFF" opacity="0.658824" />
<rect x="13" y="13" width="1" height="1" fill="#FFFFFF" opacity="0.125490" />
<rect x="14" y="13" width="1" height="1" fill="#FFFFFF" opacity="0.854902" />
<rect x="15" y="13" width="1" height="1" fill="#FFFFFF" opacity="0.082353" />
<rect x="7" y="14" width="1" height="1" fill="#FFFFFF" opacity="0.227451" />
<rect x="8" y="14" width="1" height="1" fill="#FFFFFF" opacity="0.874510" />
<rect x="9" y="14" width="1" height="1" fill="#FFFFFF" opacity="0.105882" />
<rect x="10" y="14" width="1" height="1" fill="#FFFFFF" opacity="0.180392" />
<rect x="11" y="14" width="1" height="1" fill="#FFFFFF" opacity="0.352941" />
<rect x="13" y="14" width="1" height="1" fill="#FFFFFF" opacity="0.580392" />
<rect x="14" y="14" width="1" height="1" fill="#FFFFFF" opacity="0.615686" />
<rect x="6" y="15" width="1" height="1" fill="#FFFFFF" opacity="0.003922" />
<rect x="8" y="15" width="1" height="1" fill="#FFFFFF" opacity="0.549020" />
<rect x="9" y="15" width="1" height="1" fill="#FFFFFF" opacity="0.792157" />
<rect x="10" y="15" width="1" height="1" fill="#FFFFFF" opacity="0.090196" />
<rect x="12" y="15" width="1" height="1" fill="#FFFFFF" opacity="0.509804" />
<rect x="13" y="15" width="1" height="1" fill="#FFFFFF" opacity="0.858824" />
<rect x="14" y="15" width="1" height="1" fill="#FFFFFF" opacity="0.101961" />
<rect x="8" y="16" width="1" height="1" fill="#FFFFFF" opacity="0.011765" />
<rect x="9" y="16" width="1" height="1" fill="#FFFFFF" opacity="0.552941" />
<rect x="10" y="16" width="1" height="1" fill="#FFFFFF" opacity="0.870588" />
<rect x="11" y="16" width="1" height="1" fill="#FFFFFF" opacity="0.760784" />
<rect x="12" y="16" width="1" height="1" fill="#FFFFFF" opacity="0.800000" />
<rect x="13" y="16" width="1" height="1" fill="#FFFFFF" opacity="0.160784" />
<rect x="10" y="17" width="1" height="1" fill="#FFFFFF" opacity="0.235294" />
<rect x="11" y="17" width="1" height="1" fill="#FFFFFF" opacity="0.360784" />
<rect x="12" y="17" width="1" height="1" fill="#FFFFFF" opacity="0.027451" />
</svg>