<?xml version="1.0" encoding="UTF-8" ?>
<svg version="1.1" width="22" height="22" xmlns="http://www.w3.org/2000/svg" shape-rendering="crispEdges">
<rect x="10" y="3" width="1" height="1" fill="#FFFFFF" opacity="0.172549" />
<rect x="11" y="3" width="1" height="1" fill="#FFFFFF" opacity="0.196078" />
<rect x="10" y="4" width="1" height="1" fill="#FFFFFF" opacity="0.729412" />
<rect x="11" y="4" width="1" height="1" fill="#FFFFFF" opacity="0.780392" />
<rect x="12" y="4" width="1" height="1" fill="#FFFFFF" opacity="0.007843" />
<rect x="9" y="5" width="1" height="1" fill="#FFFFFF" opacity="0.431373" />
<rect x="10" y="5" width="1" height="1" fill="#FFFFFF" opacity="0.713725" />
<rect x="11" y="5" width="1" height="1" fill="#FFFFFF" opacity="0.737255" />
<rect x="12" y="5" width="1" height="1" fill="#FFFFFF" opacity="0.407843" />
<rect x="8" y="6" width="1" height="1" fill="#FFFFFF" opacity="0.082353" />
<rect x="9" y="6" width="1" height="1" fill="#FFFFFF" opacity="0.847059" />
<rect x="10" y="6" width="1" height="1" fill="#FFFFFF" opacity="0.176471" />
<rect x="11" y="6" width="1" height="1" fill="#FFFFFF" opacity="0.207843" />
<rect x="12" y="6" width="1" height="1" fill="#FFFFFF" opacity="0.835294" />
<rect x="13" y="6" width="1" height="1" fill="#FFFFFF" opacity="0.062745" />
<rect x="8" y="7" width="1" height="1" fill="#FFFFFF" opacity="0.509804" />
<rect x="9" y="7" width="1" height="1" fill="#FFFFFF" opacity="0.564706" />
<rect x="12" y="7" width="1" height="1" fill="#FFFFFF" opacity="0.650980" />
<rect x="13" y="7" width="1" height="1" fill="#FFFFFF" opacity="0.462745" />
<rect x="7" y="8" width="1" height="1" fill="#FFFFFF" opacity="0.117647" />
<rect x="8" y="8" width="1" height="1" fill="#FFFFFF" opacity="0.796078" />
<rect x="9" y="8" width="1" height="1" fill="#FFFFFF" opacity="0.058824" />
<rect x="10" y="8" width="1" height="1" fill="#FFFFFF" opacity="0.282353" />
<rect x="11" y="8" width="1" height="1" fill="#FFFFFF" opacity="0.235294" />
<rect x="12" y="8" width="1" height="1" fill="#FFFFFF" opacity="0.141176" />
<rect x="13" y="8" width="1" height="1" fill="#FFFFFF" opacity="0.803922" />
<rect x="14" y="8" width="1" height="1" fill="#FFFFFF" opacity="0.070588" />
<rect x="7" y="9" width="1" height="1" fill="#FFFFFF" opacity="0.501961" />
<rect x="8" y="9" width="1" height="1" fill="#FFFFFF" opacity="0.505882" />
<rect x="10" y="9" width="1" height="1" fill="#FFFFFF" opacity="0.784314" />
<rect x="11" y="9" width="1" height="1" fill="#FFFFFF" opacity="0.717647" />
<rect x="13" y="9" width="1" height="1" fill="#FFFFFF" opacity="0.619608" />
<rect x="14" y="9" width="1" height="1" fill="#FFFFFF" opacity="0.407843" />
<rect x="6" y="10" width="1" height="1" fill="#FFFFFF" opacity="0.027451" />
<rect x="7" y="10" width="1" height="1" fill="#FFFFFF" opacity="0.780392" />
<rect x="8" y="10" width="1" height="1" fill="#FFFFFF" opacity="0.098039" />
<rect x="9" y="10" width="1" height="1" fill="#FFFFFF" opacity="0.380392" />
<rect x="10" y="10" width="1" height="1" fill="#FFFFFF" />
<rect x="11" y="10" width="1" height="1" fill="#FFFFFF" />
<rect x="12" y="10" width="1" height="1" fill="#FFFFFF" opacity="0.254902" />
<rect x="13" y="10" width="1" height="1" fill="#FFFFFF" opacity="0.219608" />
<rect x="14" y="10" width="1" height="1" fill="#FFFFFF" opacity="0.690196" />
<rect x="6" y="11" width="1" height="1" fill="#FFFFFF" opacity="0.266667" />
<rect x="7" y="11" width="1" height="1" fill="#FFFFFF" opacity="0.654902" />
<rect x="8" y="11" width="1" height="1" fill="#FFFFFF" opacity="0.003922" />
<rect x="9" y="11" width="1" height="1" fill="#FFFFFF" opacity="0.780392" />
<rect x="10" y="11" width="1" height="1" fill="#FFFFFF" />
<rect x="11" y="11" width="1" height="1" fill="#FFFFFF" />
<rect x="12" y="11" width="1" height="1" fill="#FFFFFF" opacity="0.615686" />
<rect x="14" y="11" width="1" height="1" fill="#FFFFFF" opacity="0.745098" />
<rect x="15" y="11" width="1" height="1" fill="#FFFFFF" opacity="0.133333" />
<rect x="6" y="12" width="1" height="1" fill="#FFFFFF" opacity="0.466667" />
<rect x="7" y="12" width="1" height="1" fill="#FFFFFF" opacity="0.419608" />
<rect x="8" y="12" width="1" height="1" fill="#FFFFFF" opacity="0.152941" />
<rect x="9" y="12" width="1" height="1" fill="#FFFFFF" opacity="0.980392" />
<rect x="10" y="12" width="1" height="1" fill="#FFFFFF" />
<rect x="11" y="12" width="1" height="1" fill="#FFFFFF" />
<rect x="12" y="12" width="1" height="1" fill="#FFFFFF" opacity="0.862745" />
<rect x="13" y="12" width="1" height="1" fill="#FFFFFF" opacity="0.027451" />
<rect x="14" y="12" width="1" height="1" fill="#FFFFFF" opacity="0.533333" />
<rect x="15" y="12" width="1" height="1" fill="#FFFFFF" opacity="0.341176" />
<rect x="6" y="13" width="1" height="1" fill="#FFFFFF" opacity="0.494118" />
<rect x="7" y="13" width="1" height="1" fill="#FFFFFF" opacity="0.266667" />
<rect x="8" y="13" width="1" height="1" fill="#FFFFFF" opacity="0.211765" />
<rect x="9" y="13" width="1" height="1" fill="#FFFFFF" opacity="0.988235" />
<rect x="10" y="13" width="1" height="1" fill="#FFFFFF" />
<rect x="11" y="13" width="1" height="1" fill="#FFFFFF" />
<rect x="12" y="13" width="1" height="1" fill="#FFFFFF" opacity="0.874510" />
<rect x="13" y="13" width="1" height="1" fill="#FFFFFF" opacity="0.023529" />
<rect x="14" y="13" width="1" height="1" fill="#FFFFFF" opacity="0.431373" />
<rect x="15" y="13" width="1" height="1" fill="#FFFFFF" opacity="0.443137" />
<rect x="6" y="14" width="1" height="1" fill="#FFFFFF" opacity="0.505882" />
<rect x="7" y="14" width="1" height="1" fill="#FFFFFF" opacity="0.356863" />
<rect x="9" y="14" width="1" height="1" fill="#FFFFFF" opacity="0.749020" />
<rect x="10" y="14" width="1" height="1" fill="#FFFFFF" />
<rect x="11" y="14" width="1" height="1" fill="#FFFFFF" />
<rect x="12" y="14" width="1" height="1" fill="#FFFFFF" opacity="0.615686" />
<rect x="14" y="14" width="1" height="1" fill="#FFFFFF" opacity="0.545098" />
<rect x="15" y="14" width="1" height="1" fill="#FFFFFF" opacity="0.384314" />
<rect x="6" y="15" width="1" height="1" fill="#FFFFFF" opacity="0.388235" />
<rect x="7" y="15" width="1" height="1" fill="#FFFFFF" opacity="0.588235" />
<rect x="9" y="15" width="1" height="1" fill="#FFFFFF" opacity="0.090196" />
<rect x="10" y="15" width="1" height="1" fill="#FFFFFF" opacity="0.380392" />
<rect x="11" y="15" width="1" height="1" fill="#FFFFFF" opacity="0.372549" />
<rect x="12" y="15" width="1" height="1" fill="#FFFFFF" opacity="0.054902" />
<rect x="14" y="15" width="1" height="1" fill="#FFFFFF" opacity="0.658824" />
<rect x="15" y="15" width="1" height="1" fill="#FFFFFF" opacity="0.176471" />
<rect x="6" y="16" width="1" height="1" fill="#FFFFFF" opacity="0.109804" />
<rect x="7" y="16" width="1" height="1" fill="#FFFFFF" opacity="0.843137" />
<rect x="8" y="16" width="1" height="1" fill="#FFFFFF" opacity="0.211765" />
<rect x="13" y="16" width="1" height="1" fill="#FFFFFF" opacity="0.286275" />
<rect x="14" y="16" width="1" height="1" fill="#FFFFFF" opacity="0.760784" />
<rect x="15" y="16" width="1" height="1" fill="#FFFFFF" opacity="0.015686" />
<rect x="7" y="17" width="1" height="1" fill="#FFFFFF" opacity="0.317647" />
<rect x="8" y="17" width="1" height="1" fill="#FFFFFF" opacity="0.850980" />
<rect x="9" y="17" width="1" height="1" fill="#FFFFFF" opacity="0.513725" />
<rect x="10" y="17" width="1" height="1" fill="#FFFFFF" opacity="0.298039" />
<rect x="11" y="17" width="1" height="1" fill="#FFFFFF" opacity="0.301961" />
<rect x="12" y="17" width="1" height="1" fill="#FFFFFF" opacity="0.576471" />
<rect x="13" y="17" width="1" height="1" fill="#FFFFFF" opacity="0.882353" />
<rect x="14" y="17" width="1" height="1" fill="#FFFFFF" opacity="0.254902" />
<rect x="8" y="18" width="1" height="1" fill="#FFFFFF" opacity="0.156863" />
<rect x="9" y="18" width="1" height="1" fill="#FFFFFF" opacity="0.552941" />
<rect x="10" y="18" width="1" height="1" fill="#FFFFFF" opacity="0.666667" />
<rect x="11" y="18" width="1" height="1" fill="#FFFFFF" opacity="0.674510" />
<rect x="12" y="18" width="1" height="1" fill="#FFFFFF" opacity="0.556863" />
<rect x="13" y="18" width="1" height="1" fill="#FFFFFF" opacity="0.152941" />
</svg>