<?xml version="1.0" encoding="UTF-8" ?>
<svg version="1.1" width="13" height="13" xmlns="http://www.w3.org/2000/svg" shape-rendering="crispEdges">
<rect x="4" y="1" width="1" height="1" fill="#FFFFFF" opacity="0.019608" />
<rect x="5" y="1" width="1" height="1" fill="#FFFFFF" opacity="0.003922" />
<rect x="6" y="1" width="1" height="1" fill="#FFFFFF" opacity="0.235294" />
<rect x="7" y="1" width="1" height="1" fill="#FFFFFF" opacity="0.309804" />
<rect x="3" y="2" width="1" height="1" fill="#FFFFFF" opacity="0.207843" />
<rect x="4" y="2" width="1" height="1" fill="#FFFFFF" opacity="0.819608" />
<rect x="5" y="2" width="1" height="1" fill="#FFFFFF" opacity="0.450980" />
<rect x="6" y="2" width="1" height="1" fill="#FFFFFF" opacity="0.560784" />
<rect x="7" y="2" width="1" height="1" fill="#FFFFFF" opacity="0.996078" />
<rect x="8" y="2" width="1" height="1" fill="#FFFFFF" opacity="0.301961" />
<rect x="9" y="2" width="1" height="1" fill="#FFFFFF" opacity="0.498039" />
<rect x="10" y="2" width="1" height="1" fill="#FFFFFF" opacity="0.184314" />
<rect x="2" y="3" width="1" height="1" fill="#FFFFFF" opacity="0.313725" />
<rect x="3" y="3" width="1" height="1" fill="#FFFFFF" opacity="0.988235" />
<rect x="4" y="3" width="1" height="1" fill="#FFFFFF" opacity="0.780392" />
<rect x="5" y="3" width="1" height="1" fill="#FFFFFF" opacity="0.325490" />
<rect x="6" y="3" width="1" height="1" fill="#FFFFFF" opacity="0.352941" />
<rect x="7" y="3" width="1" height="1" fill="#FFFFFF" opacity="0.956863" />
<rect x="8" y="3" width="1" height="1" fill="#FFFFFF" opacity="0.941176" />
<rect x="9" y="3" width="1" height="1" fill="#FFFFFF" opacity="0.349020" />
<rect x="10" y="3" width="1" height="1" fill="#FFFFFF" opacity="0.647059" />
<rect x="11" y="3" width="1" height="1" fill="#FFFFFF" opacity="0.098039" />
<rect x="1" y="4" width="1" height="1" fill="#FFFFFF" opacity="0.137255" />
<rect x="2" y="4" width="1" height="1" fill="#FFFFFF" opacity="0.929412" />
<rect x="3" y="4" width="1" height="1" fill="#FFFFFF" opacity="0.486275" />
<rect x="4" y="4" width="1" height="1" fill="#FFFFFF" opacity="0.345098" />
<rect x="5" y="4" width="1" height="1" fill="#FFFFFF" opacity="0.831373" />
<rect x="6" y="4" width="1" height="1" fill="#FFFFFF" />
<rect x="7" y="4" width="1" height="1" fill="#FFFFFF" opacity="0.811765" />
<rect x="8" y="4" width="1" height="1" fill="#FFFFFF" opacity="0.341176" />
<rect x="9" y="4" width="1" height="1" fill="#FFFFFF" opacity="0.227451" />
<rect x="10" y="4" width="1" height="1" fill="#FFFFFF" opacity="0.686275" />
<rect x="11" y="4" width="1" height="1" fill="#FFFFFF" opacity="0.541176" />
<rect x="1" y="5" width="1" height="1" fill="#FFFFFF" opacity="0.619608" />
<rect x="2" y="5" width="1" height="1" fill="#FFFFFF" opacity="0.450980" />
<rect x="3" y="5" width="1" height="1" fill="#FFFFFF" opacity="0.513725" />
<rect x="4" y="5" width="1" height="1" fill="#FFFFFF" />
<rect x="5" y="5" width="1" height="1" fill="#FFFFFF" opacity="0.980392" />
<rect x="6" y="5" width="1" height="1" fill="#FFFFFF" opacity="0.462745" />
<rect x="7" y="5" width="1" height="1" fill="#FFFFFF" opacity="0.019608" />
<rect x="8" y="5" width="1" height="1" fill="#FFFFFF" opacity="0.427451" />
<rect x="9" y="5" width="1" height="1" fill="#FFFFFF" opacity="0.627451" />
<rect x="10" y="5" width="1" height="1" fill="#FFFFFF" opacity="0.223529" />
<rect x="11" y="5" width="1" height="1" fill="#FFFFFF" opacity="0.003922" />
<rect x="0" y="6" width="1" height="1" fill="#FFFFFF" opacity="0.141176" />
<rect x="1" y="6" width="1" height="1" fill="#FFFFFF" opacity="0.427451" />
<rect x="2" y="6" width="1" height="1" fill="#FFFFFF" opacity="0.462745" />
<rect x="3" y="6" width="1" height="1" fill="#FFFFFF" />
<rect x="4" y="6" width="1" height="1" fill="#FFFFFF" opacity="0.933333" />
<rect x="5" y="6" width="1" height="1" fill="#FFFFFF" opacity="0.258824" />
<rect x="6" y="6" width="1" height="1" fill="#FFFFFF" opacity="0.019608" />
<rect x="7" y="6" width="1" height="1" fill="#FFFFFF" opacity="0.627451" />
<rect x="8" y="6" width="1" height="1" fill="#FFFFFF" opacity="0.407843" />
<rect x="9" y="6" width="1" height="1" fill="#FFFFFF" opacity="0.003922" />
<rect x="0" y="7" width="1" height="1" fill="#FFFFFF" opacity="0.054902" />
<rect x="1" y="7" width="1" height="1" fill="#FFFFFF" opacity="0.047059" />
<rect x="2" y="7" width="1" height="1" fill="#FFFFFF" opacity="0.831373" />
<rect x="3" y="7" width="1" height="1" fill="#FFFFFF" />
<rect x="4" y="7" width="1" height="1" fill="#FFFFFF" opacity="0.419608" />
<rect x="5" y="7" width="1" height="1" fill="#FFFFFF" opacity="0.145098" />
<rect x="6" y="7" width="1" height="1" fill="#FFFFFF" opacity="0.607843" />
<rect x="7" y="7" width="1" height="1" fill="#FFFFFF" opacity="0.329412" />
<rect x="1" y="8" width="1" height="1" fill="#FFFFFF" opacity="0.105882" />
<rect x="2" y="8" width="1" height="1" fill="#FFFFFF" opacity="0.968627" />
<rect x="3" y="8" width="1" height="1" fill="#FFFFFF" opacity="0.541176" />
<rect x="4" y="8" width="1" height="1" fill="#FFFFFF" opacity="0.462745" />
<rect x="5" y="8" width="1" height="1" fill="#FFFFFF" opacity="0.611765" />
<rect x="6" y="8" width="1" height="1" fill="#FFFFFF" opacity="0.403922" />
<rect x="1" y="9" width="1" height="1" fill="#FFFFFF" opacity="0.156863" />
<rect x="2" y="9" width="1" height="1" fill="#FFFFFF" opacity="0.886275" />
<rect x="3" y="9" width="1" height="1" fill="#FFFFFF" opacity="0.082353" />
<rect x="4" y="9" width="1" height="1" fill="#FFFFFF" opacity="0.717647" />
<rect x="5" y="9" width="1" height="1" fill="#FFFFFF" opacity="0.678431" />
<rect x="1" y="10" width="1" height="1" fill="#FFFFFF" opacity="0.196078" />
<rect x="2" y="10" width="1" height="1" fill="#FFFFFF" opacity="0.572549" />
<rect x="4" y="10" width="1" height="1" fill="#FFFFFF" opacity="0.768627" />
<rect x="5" y="10" width="1" height="1" fill="#FFFFFF" opacity="0.235294" />
<rect x="1" y="11" width="1" height="1" fill="#FFFFFF" opacity="0.113725" />
<rect x="2" y="11" width="1" height="1" fill="#FFFFFF" opacity="0.223529" />
<rect x="4" y="11" width="1" height="1" fill="#FFFFFF" opacity="0.529412" />
<rect x="5" y="11" width="1" height="1" fill="#FFFFFF" opacity="0.023529" />
<rect x="3" y="12" width="1" height="1" fill="#FFFFFF" opacity="0.007843" />
<rect x="4" y="12" width="1" height="1" fill="#FFFFFF" opacity="0.133333" />
</svg>